<svg width="360" height="360" viewBox="0 0 360 360" fill="none" xmlns="http://www.w3.org/2000/svg">
<path d="M0 188.032C12.5104 193.148 24.9901 198.682 37.5234 203.576C76.5584 218.816 120.021 230.731 161.827 232.97C170.442 233.653 179.31 233.963 188.31 233.877C192.809 233.834 197.342 233.693 201.893 233.449C204.168 233.328 206.447 233.181 208.729 233.008C217.858 232.317 227.027 231.214 236.116 229.678C236.874 229.55 237.63 229.418 238.387 229.284C239.899 229.016 241.409 228.736 242.916 228.443C245.176 228.005 247.429 227.539 249.674 227.045C252.667 226.386 255.644 225.678 258.601 224.92C259.34 224.73 260.078 224.538 260.814 224.342C262.288 223.95 263.756 223.546 265.218 223.129C271.797 221.253 278.257 219.118 284.547 216.718C285.945 216.184 287.334 215.638 288.715 215.078C289.405 214.798 290.093 214.515 290.778 214.229C294.892 212.509 298.923 210.67 302.855 208.708C304.621 207.828 306.382 206.878 308.133 205.875C310.467 204.538 312.785 203.104 315.075 201.61C320.228 198.249 325.24 194.582 329.987 191.01C329.83 194.605 329.306 199.619 328.521 204.995C328.431 205.612 328.339 206.234 328.242 206.859C326.838 215.934 324.742 225.678 322.438 231.203C320.23 241.079 315.999 250.758 311.747 259.832C297.111 291.075 274.838 317.23 246.159 335.401C244.268 336.598 243.251 337.153 241.1 337.602C238.859 336.721 237.216 332.125 236.227 329.815C221.641 295.74 197.046 269.165 162.966 255.961C140.132 247.111 115.583 245.42 91.585 241.754C66.7095 237.954 46.1871 231.834 23.4961 220.692C32.9604 229.122 40.1845 235.362 51.5527 241.227C97.8879 265.133 153.482 255.771 192.216 296.319C207.176 311.979 216.003 326.906 223.703 347.322C199.233 359.198 170.167 362.043 143.481 358.692C64.8024 348.815 3.2321 268.236 0 188.032Z" fill="#6D9D24"/>
<path d="M331.355 79.455C334.205 79.3021 336.756 79.1122 339.624 79.4787C357.128 81.7124 365.723 103.353 355.813 118.1C351.071 125.157 344.883 127.823 336.976 129.287C324.374 151.587 312.044 175.013 299.855 197.624C282.05 206.561 268.332 210.899 249.148 215.187C240 217.239 232.804 218.265 223.549 219.333C231.741 208.718 241.578 197.41 250.16 186.925L311.906 111.623C308.639 94.9563 315.526 83.6085 331.355 79.455Z" fill="#F7A711"/>
<path d="M283.736 0C285.143 9.31679 288.189 28.7372 287.86 38.1309C290.654 71.2879 281.086 121.439 259.978 147.23C246.557 163.626 228.821 173.871 211.735 185.464C208.129 187.911 201.504 195.802 198.993 197.289C198.915 197.323 198.839 197.36 198.764 197.395C198.839 197.36 198.914 197.324 198.992 197.29C189.579 210.389 186.491 217.633 183.211 233.482C178.618 233.253 174.02 233.124 169.419 233.098C164.762 221.225 160.35 215.117 155.996 205.215L155.995 205.212C152.99 201.715 149.104 195.49 145.804 191.377C137.729 181.314 123.296 167.996 112.004 161.878C123.923 172.703 137.173 187.463 144.646 202.044C148.465 208.273 151.284 213.639 153.753 219.45C155.442 223.426 156.966 227.611 158.535 232.425C150.609 229.575 136.246 224.875 125.312 219.833C123.324 218.916 121.449 217.988 119.747 217.058C117.832 216.011 116.136 214.961 114.743 213.922C114.588 213.806 114.437 213.691 114.29 213.576C113.996 213.346 113.717 213.115 113.454 212.886C112.478 212.298 111.542 211.641 110.65 210.924C86.685 191.567 81.61 155.52 78.2275 126.152C119.332 136.419 159.932 144.183 171.565 193.801C170.62 192.688 170.436 192.466 170.011 191.058C169.952 191.05 169.887 191.045 169.817 191.042C169.887 191.045 169.951 191.051 170.01 191.059C170.435 192.467 170.62 192.688 171.565 193.801C173.197 201.839 174.349 209.975 175.012 218.163C178.601 211.937 184.086 204.181 186.849 197.87C187.236 196.984 188.617 187.822 189.285 185.19L189.467 184.505C189.594 188.893 188.47 194.415 187.741 198.843C189.143 200.562 191.047 203.521 192.793 204.357L192.794 204.356C191.048 203.52 189.144 200.562 187.742 198.843C188.471 194.415 189.595 188.892 189.468 184.504C189.629 182.196 192.014 172.481 192.669 169.884C200.581 139.599 213.635 111.012 231.218 85.4551C232.59 83.4344 246.531 64.7324 246.485 64.8906C244.132 65.9017 233.726 76.096 231.164 78.5537C201.948 106.568 187.551 141.303 178.316 180.575C175.824 175.343 173.233 169.631 170.264 164.702C168.867 161.429 162.961 155.139 162.025 152.238C157.733 138.952 159.591 117.618 163.442 105.458C177.49 61.1325 218.671 39.7503 255.996 20.2432C258.005 18.659 260.576 17.2692 262.982 15.8379C263.584 15.4799 264.175 15.1188 264.745 14.752C264.935 14.6297 265.123 14.5076 265.308 14.3838C267.694 12.7829 270.101 11.1105 272.471 9.36426C273.261 8.78201 274.047 8.19162 274.826 7.59277C276.385 6.39548 277.918 5.16439 279.408 3.89941C280.154 3.26666 280.889 2.62561 281.611 1.97559C282.333 1.32585 283.042 0.667211 283.736 0ZM169.58 191.042C169.432 191.047 169.268 191.061 169.09 191.081C169.268 191.061 169.432 191.047 169.58 191.042Z" fill="#065223"/>
</svg>
